HIERARCHY
ROOT Hips
{
	OFFSET 0.00000 0.00000 0.00000
	CHANNELS 6 Xposition Yposition Zposition Zrotation Yrotation Xrotation 
	JOINT LHipJoint
	{
		OFFSET 0 0 0
		CHANNELS 3 Zrotation Yrotation Xrotation
		JOINT LeftHip
		{
			OFFSET 1.86795 -1.59681 0.65681
			CHANNELS 3 Zrotation Yrotation Xrotation
			JOINT LeftKnee
			{
				OFFSET 2.30491 -6.33268 0.00000
				CHANNELS 3 Zrotation Yrotation Xrotation
				JOINT LeftAnkle
				{
					OFFSET 2.46780 -6.78022 0.00000
					CHANNELS 3 Zrotation Yrotation Xrotation
					JOINT LeftToe
					{
						OFFSET 0.07897 -0.21698 1.59652
						CHANNELS 3 Zrotation Yrotation Xrotation
						End Site
						{
							OFFSET 0.00000 -0.00000 0.82310
						}
					}
				}
			}
		}
	}
	JOINT RHipJoint
	{
		OFFSET 0 0 0
		CHANNELS 3 Zrotation Yrotation Xrotation
		JOINT RightHip
		{
			OFFSET -1.93650 -1.59681 0.65681
			CHANNELS 3 Zrotation Yrotation Xrotation
			JOINT RightKnee
			{
				OFFSET -2.29410 -6.30299 0.00000
				CHANNELS 3 Zrotation Yrotation Xrotation
				JOINT RightAnkle
				{
					OFFSET -2.48738 -6.83403 0.00000
					CHANNELS 3 Zrotation Yrotation Xrotation
					JOINT RightToe
					{
						OFFSET -0.08699 -0.23899 1.89395
						CHANNELS 3 Zrotation Yrotation Xrotation
						End Site
						{
							OFFSET -0.00000 -0.00000 0.96904
						}
					}
				}
			}
		}
	}
	JOINT lowerback
	{
		OFFSET 0 0 0
		CHANNELS 3 Zrotation Yrotation Xrotation
		JOINT Chest
		{
			OFFSET 0.03629 1.99740 -0.07548
			CHANNELS 3 Zrotation Yrotation Xrotation
			JOINT Chest2
			{
				OFFSET 0.03970 1.94298 0.17218
				CHANNELS 3 Zrotation Yrotation Xrotation
				JOINT lowerneck
				{
					OFFSET 0 0 0
					CHANNELS 3 Zrotation Yrotation Xrotation
					JOINT Neck
					{
						OFFSET -0.05054 1.79469 0.04241
						CHANNELS 3 Zrotation Yrotation Xrotation
						JOINT Head
						{
							OFFSET 0.05195 1.78475 -0.22133
							CHANNELS 3 Zrotation Yrotation Xrotation
							End Site
							{
								OFFSET 0.02420 1.80711 -0.07950
							}
						}
					}
				}
				JOINT LeftCollar
				{
					OFFSET 0 0 0
					CHANNELS 3 Zrotation Yrotation Xrotation
					JOINT LeftShoulder
					{
						OFFSET 2.92134 1.19850 0.36056
CHANNELS 3 Zrotation Xrotation Yrotation
						JOINT LeftElbow
						{
OFFSET 0 -4.841370 0.000000
CHANNELS 3 Zrotation Xrotation Yrotation
							JOINT LeftWrist
							{
OFFSET 0 -3.245200 -0.000000
CHANNELS 3 Zrotation Xrotation Yrotation
								JOINT lhand
								{
									OFFSET 0 0 0
CHANNELS 3 Zrotation Xrotation Yrotation
									JOINT LFingers
									{
OFFSET 0 -0.521220 0.000000
CHANNELS 3 Zrotation Xrotation Yrotation
										End Site
										{
OFFSET 0 -0.420220 0.000000
										}
									}
								}
								JOINT LThumb
								{
OFFSET 0 0.000000 0.000000
CHANNELS 3 Zrotation Xrotation Yrotation
									End Site
									{
OFFSET 0 -0.426640 0.426640
									}
								}
							}
						}
					}
				}
				JOINT RightCollar
				{
					OFFSET 0 0 0
					CHANNELS 3 Zrotation Yrotation Xrotation
					JOINT RightShoulder
					{
						OFFSET -2.84327 1.20795 0.50191
CHANNELS 3 Zrotation Xrotation Yrotation
						JOINT RightElbow
						{
OFFSET 0 -4.722840 0.000000
CHANNELS 3 Zrotation Xrotation Yrotation
							JOINT RightWrist
							{
OFFSET 0 -3.234590 0.000000
CHANNELS 3 Zrotation Xrotation Yrotation
								JOINT rhand
								{
									OFFSET 0 0 0
CHANNELS 3 Zrotation Xrotation Yrotation
									JOINT RFingers
									{
OFFSET 0 -0.307420 0.000000
CHANNELS 3 Zrotation Xrotation Yrotation
										End Site
										{
OFFSET 0 -0.247850 0.000000
										}
									}
								}
								JOINT RThumb
								{
OFFSET 0 0.000000 0.000000
CHANNELS 3 Zrotation Xrotation Yrotation
									End Site
									{
OFFSET 0 -0.251630 0.251630
									}
								}
							}
						}
					}
				}
			}
		}
	}
}
MOTION
Frames: 6
Frame Time: 0.008333333333333333
1.991787 16.728308 -12.188162 172.372513 26.916042 -164.110506 0.000000 0.000000 0.000000 -25.745146 -1.620528 -17.858228 2.976063 10.655576 31.127453 -0.677121 16.625079 2.773493 0.044698 -1.294413 -3.560660 0.000000 0.000000 0.000000 22.360150 13.003765 -43.700661 -2.888287 -10.511859 30.650885 -0.605605 -10.492667 14.730542 -1.982948 8.800576 -25.191948 -7.206634 -1.829903 3.240882 -3.700800 -2.683458 -1.766631 0.356530 -1.109652 -3.494921 -9.856996 -3.018935 -8.658597 16.910824 -1.558880 -9.213937 6.805103 -0.216348 -0.939417 0.000000 0.000000 0.000000 11.696169 -5.060044 -42.112237 107.386387 -58.826390 74.997731 -23.566044 33.930891 -45.760932 0.000000 0.000000 0.000000 -7.125000 0.000000 0.000000 -73.567432 61.090312 39.823372 0.000000 0.000000 0.000000 -10.873883 -14.387071 25.200666 -135.042472 -50.747629 -97.794114 3.986576 12.896699 -11.358781 0.000000 0.000000 0.000000 7.125000 0.000000 0.000000 21.479413 18.936221 14.389357
2.362595 16.605283 -13.039593 172.840830 28.754243 -165.616197 0.000000 0.000000 0.000000 -21.819199 -1.275632 -25.688980 7.155810 15.456207 49.451502 0.595448 14.512758 16.000858 1.597802 7.963535 22.608135 0.000000 0.000000 0.000000 23.291605 13.688006 -38.864931 -3.396482 -11.310359 33.334419 0.075360 -10.798994 6.334808 -0.480898 4.447027 -12.337691 -5.242278 -1.911079 3.701243 -3.492304 -2.794005 -1.948976 -0.486970 -1.219633 -4.017527 -9.939449 -3.221489 -8.913159 16.512462 -2.093943 -8.067355 6.659432 -0.500142 -0.508388 0.000000 0.000000 0.000000 10.217654 -4.777521 -43.087884 108.008725 -58.738184 75.529919 -24.718285 33.851118 -43.912933 0.000000 0.000000 0.000000 -7.125000 0.000000 0.000000 -71.616730 59.946806 36.302404 0.000000 0.000000 0.000000 -12.546485 -12.717851 22.868758 -136.738372 -49.887670 -99.099370 5.787942 11.857866 -13.357691 0.000000 0.000000 0.000000 7.125000 0.000000 0.000000 22.374546 17.072869 16.104968
2.624406 16.240930 -13.717931 175.630927 30.130338 -167.137424 0.000000 0.000000 0.000000 -15.811946 -4.471126 -34.748967 12.826180 18.716052 68.582258 0.509404 9.195212 13.329830 0.369497 3.843343 10.644101 0.000000 0.000000 0.000000 27.502420 11.325364 -35.384123 -4.295467 -12.542445 37.680740 0.264613 -9.948839 0.679863 -0.865957 5.932892 -16.590081 -1.918168 -1.736488 6.587020 -2.087108 -2.519950 -0.953589 -0.823458 -1.203192 -4.695926 -9.752309 -3.540073 -8.732153 16.351480 -2.153863 -10.404439 6.605645 -0.526534 -1.209140 0.000000 0.000000 0.000000 7.941559 -6.010416 -44.649564 110.688964 -58.319164 77.816016 -23.990627 34.598339 -45.015881 0.000000 0.000000 0.000000 -7.125000 0.000000 0.000000 -72.729050 60.645586 38.380238 0.000000 0.000000 0.000000 -16.107922 -13.581491 19.114457 -138.200899 -49.100112 -100.211353 4.970156 10.367414 -11.938975 0.000000 0.000000 0.000000 7.125000 0.000000 0.000000 22.041914 18.393908 15.119634
2.829016 15.932947 -14.364598 177.053077 35.236996 -167.154311 0.000000 0.000000 0.000000 -13.085412 -8.287763 -43.155690 14.262398 19.191520 73.004148 -0.041218 5.907273 2.831374 0.055993 -1.109839 -3.055377 0.000000 0.000000 0.000000 28.070722 13.490124 -35.500798 -6.171548 -14.591865 45.665099 0.194817 -7.830503 -3.467574 -0.732378 5.451497 -15.204926 -0.856763 -1.092683 8.029140 -0.965676 -1.565501 -0.461212 -0.331560 -0.754644 -4.989224 -9.360655 -3.454856 -9.560081 15.937620 -1.813675 -11.491053 6.427172 -0.314944 -1.452705 0.000000 0.000000 0.000000 5.779517 -7.341506 -44.519863 111.771002 -58.130881 78.735866 -28.972415 32.865361 -43.418257 0.000000 0.000000 0.000000 -7.125000 0.000000 0.000000 -74.060128 58.611305 36.148143 0.000000 0.000000 0.000000 -15.977204 -17.506157 16.183013 -137.368470 -49.553903 -99.580072 6.556371 12.396854 -13.856769 0.000000 0.000000 0.000000 7.125000 0.000000 0.000000 22.793786 16.606585 16.719365
3.122542 15.820838 -15.049861 177.684743 40.045541 -166.893279 0.000000 0.000000 0.000000 -10.772792 -14.067349 -46.643453 10.366619 17.603579 60.697110 -0.010422 2.385779 -2.509937 0.393590 -4.016595 -11.124944 0.000000 0.000000 0.000000 28.267390 15.387814 -31.933697 -6.437017 -14.838569 46.710750 0.153295 -7.368997 -5.368083 -1.403987 7.491275 -21.180987 0.441573 -1.036495 7.693977 -1.061951 -1.367460 -0.138421 -1.193216 -0.689507 -4.496780 -8.863102 -3.794219 -9.383638 16.951831 -2.282313 -11.473377 6.652907 -0.592867 -1.389795 0.000000 0.000000 0.000000 7.234309 -7.954449 -45.684141 111.117682 -58.246010 78.180781 -25.747038 34.276998 -44.542704 0.000000 0.000000 0.000000 -7.125000 0.000000 0.000000 -73.316308 59.959360 37.777802 0.000000 0.000000 0.000000 -12.993709 -17.497285 17.045959 -137.746414 -49.349756 -99.867234 5.145562 12.498410 -13.497446 0.000000 0.000000 0.000000 7.125000 0.000000 0.000000 21.947438 16.942924 15.811759
3.522820 15.989891 -15.782048 178.043895 46.657152 -166.587469 0.000000 0.000000 0.000000 -6.469055 -21.887242 -42.263067 4.107074 12.288561 36.779436 -0.043414 -3.738580 0.833859 1.490742 -7.711519 -21.842079 0.000000 0.000000 0.000000 28.188897 17.446709 -25.646721 -5.625990 -14.055676 43.461295 0.105845 -6.142573 -4.571205 -1.269114 7.127343 -20.098761 0.380170 -0.721900 7.677201 -0.795514 -0.950255 -0.309834 -0.929510 -0.482734 -4.649267 -9.746009 -4.032924 -8.396334 17.625531 -2.496077 -12.431514 7.047924 -0.759051 -1.759065 0.000000 0.000000 0.000000 6.820909 -6.895089 -46.376816 111.205770 -58.230734 78.255596 -25.030137 34.232079 -45.224817 0.000000 0.000000 0.000000 -7.125000 0.000000 0.000000 -73.814160 60.454106 39.022140 0.000000 0.000000 0.000000 -11.221342 -15.402374 19.453381 -138.888731 -48.714626 -100.729777 3.519398 11.616067 -12.814881 0.000000 0.000000 0.000000 7.125000 0.000000 0.000000 20.987036 17.574703 14.694246
